<?xml version="1.0" encoding="utf-8"?>
<!-- Generator: Adobe Illustrator 16.0.0, SVG Export Plug-In . SVG Version: 6.00 Build 0)  -->
<!DOCTYPE svg PUBLIC "-//W3C//DTD SVG 1.1//EN" "http://www.w3.org/Graphics/SVG/1.1/DTD/svg11.dtd">
<svg version="1.1" id="Слой_1" xmlns="http://www.w3.org/2000/svg" xmlns:xlink="http://www.w3.org/1999/xlink" x="0px" y="0px"
	 width="512px" height="512px" viewBox="0 0 512 512" enable-background="new 0 0 512 512" xml:space="preserve">
<circle fill="#FFFFFF" cx="256" cy="255.75" r="244.25"/>
<linearGradient id="SVGID_1_" gradientUnits="userSpaceOnUse" x1="364.2795" y1="997.4219" x2="678.2888" y2="623.1999" gradientTransform="matrix(1 0 0 1 -265.2847 -554.5605)">
	<stop  offset="0" style="stop-color:#001D32"/>
	<stop  offset="1" style="stop-color:#40BFE8"/>
</linearGradient>
<path fill="url(#SVGID_1_)" d="M256,11.5c-134.896,0-244.25,109.354-244.25,244.25C11.75,390.646,121.104,500,256,500
	c134.896,0,244.25-109.354,244.25-244.25C500.25,120.854,390.896,11.5,256,11.5z M256,470.002
	c-118.328,0-214.252-95.924-214.252-214.252S137.672,41.498,256,41.498c118.327,0,214.252,95.924,214.252,214.252
	S374.327,470.002,256,470.002z"/>
<linearGradient id="SVGID_2_" gradientUnits="userSpaceOnUse" x1="124.2693" y1="411.7998" x2="385.732" y2="100.2004">
	<stop  offset="0" style="stop-color:#001D32"/>
	<stop  offset="1" style="stop-color:#40BFE8"/>
</linearGradient>
<path fill="url(#SVGID_2_)" d="M389.691,108.832H120.306c-9.618,0.012-17.451,7.846-17.462,17.466v259.406
	c0.011,9.618,7.845,17.452,17.465,17.464h269.384c9.617-0.012,17.451-7.846,17.464-17.467V126.294
	C407.145,116.678,399.311,108.844,389.691,108.832z M392.18,163.717v221.98c-0.002,1.373-1.12,2.491-2.489,2.493H120.312
	c-1.372-0.002-2.489-1.119-2.491-2.489V163.717H392.18z M120.312,123.809h269.375c1.372,0.001,2.49,1.12,2.492,2.489v22.443H117.821
	V126.3C117.823,124.928,118.94,123.811,120.312,123.809z"/>
<path fill="#2883A5" d="M170.195,128.786c-4.129,0-7.488,3.359-7.488,7.488c0,4.129,3.359,7.489,7.488,7.489
	s7.488-3.359,7.488-7.489C177.683,132.146,174.323,128.786,170.195,128.786z"/>
<path fill="#267E9E" d="M150.241,128.786c-4.129,0-7.489,3.359-7.489,7.488c0,4.129,3.359,7.489,7.489,7.489
	c4.129,0,7.488-3.359,7.488-7.489C157.729,132.146,154.37,128.786,150.241,128.786z"/>
<path fill="#227292" d="M130.286,128.786c-4.129,0-7.488,3.359-7.488,7.488c0,4.129,3.359,7.489,7.488,7.489
	s7.488-3.359,7.488-7.489C137.775,132.146,134.415,128.786,130.286,128.786z"/>
<linearGradient id="SVGID_3_" gradientUnits="userSpaceOnUse" x1="171.5071" y1="380.0391" x2="203.8032" y2="341.55">
	<stop  offset="0" style="stop-color:#072E45"/>
	<stop  offset="1" style="stop-color:#0A364F"/>
</linearGradient>
<path fill="url(#SVGID_3_)" d="M215.092,353.305h-54.875c-4.129,0-7.488,3.359-7.488,7.489s3.359,7.489,7.488,7.489h54.875
	c4.129,0,7.488-3.359,7.488-7.489S219.221,353.305,215.092,353.305z"/>
<path fill="#083148" d="M140.264,353.305c-4.129,0-7.489,3.359-7.489,7.489s3.36,7.489,7.489,7.489c4.129,0,7.488-3.359,7.488-7.489
	S144.393,353.305,140.264,353.305z"/>
<linearGradient id="SVGID_4_" gradientUnits="userSpaceOnUse" x1="285.6467" y1="363.7686" x2="324.1253" y2="317.9115">
	<stop  offset="0" style="stop-color:#0E4059"/>
	<stop  offset="1" style="stop-color:#247898"/>
</linearGradient>
<path fill="url(#SVGID_4_)" d="M339.805,333.352h-69.838c-4.13,0-7.49,3.359-7.49,7.488s3.36,7.488,7.49,7.488h69.838
	c4.13,0,7.489-3.359,7.489-7.488S343.935,333.352,339.805,333.352z"/>
<linearGradient id="SVGID_5_" gradientUnits="userSpaceOnUse" x1="285.8586" y1="383.4697" x2="323.913" y2="338.1183">
	<stop  offset="0" style="stop-color:#0E4059"/>
	<stop  offset="1" style="stop-color:#247898"/>
</linearGradient>
<path fill="url(#SVGID_5_)" d="M338.201,353.305h-66.63c-5.015,0-9.095,3.359-9.095,7.489s4.08,7.489,9.095,7.489h66.63
	c5.014,0,9.093-3.359,9.093-7.489S343.215,353.305,338.201,353.305z"/>
<linearGradient id="SVGID_6_" gradientUnits="userSpaceOnUse" x1="228.4607" y1="269.5957" x2="268.6902" y2="221.6521">
	<stop  offset="0" style="stop-color:#1A5F7C"/>
	<stop  offset="1" style="stop-color:#237797"/>
</linearGradient>
<path fill="url(#SVGID_6_)" d="M284.411,235.096l-40.492-22.155c-3.045-1.666-6.853-1.6-9.836,0.169
	c-3.05,1.807-4.871,5.003-4.871,8.549v43.93c0,3.528,1.809,6.717,4.842,8.531c1.553,0.926,3.314,1.415,5.093,1.415
	c1.627,0,3.255-0.413,4.709-1.194l40.493-21.774c3.211-1.729,5.215-5.068,5.229-8.716
	C289.592,240.204,287.613,236.849,284.411,235.096z M267.472,243.77l-22.519,12.11v-24.431L267.472,243.77z"/>
<linearGradient id="SVGID_7_" gradientUnits="userSpaceOnUse" x1="190.7732" y1="322.1426" x2="319.3271" y2="168.9379">
	<stop  offset="0" style="stop-color:#114863"/>
	<stop  offset="1" style="stop-color:#329BC0"/>
</linearGradient>
<path fill="url(#SVGID_7_)" d="M347.781,208.636l-0.012-0.137c-0.268-2.547-1.949-15.614-8.745-22.722
	c-8.001-8.521-16.977-9.543-21.296-10.035c-0.313-0.035-0.603-0.069-0.927-0.111l-0.399-0.041
	c-24.104-1.753-60.942-2.009-61.29-2.009c0,0,0,0-0.001,0l-0.146-0.003l-0.063,0.003c-1.706,0.01-37.65,0.289-61.602,2.017
	l-0.393,0.042c-0.194,0.026-0.403,0.05-0.627,0.076l-0.189,0.022c-4.276,0.493-13.174,1.52-21.191,10.338
	c-6.614,7.188-8.463,20.749-8.655,22.294l-0.028,0.249c-0.056,0.617-1.358,15.278-1.358,30.123v13.715
	c0,14.81,1.303,29.505,1.361,30.152l0.011,0.106c0.268,2.501,1.947,15.34,8.688,22.43c7.564,8.278,16.939,9.353,21.98,9.93
	c0.683,0.077,1.27,0.142,1.757,0.226l0.536,0.073c13.567,1.288,55.151,1.951,59.848,2.022l0.22,0.001h0.007
	c0.364-0.002,37.063-0.245,61.431-2.019l0.386-0.04c0.253-0.033,0.53-0.063,0.834-0.096l0.134-0.015
	c4.257-0.449,13.116-1.384,21.046-10.106c6.619-7.196,8.465-20.75,8.659-22.32l0.023-0.221c0.056-0.614,1.36-15.216,1.36-30.124
	v-13.715C349.139,223.835,347.835,209.233,347.781,208.636z M182.496,294.479l-0.126-0.135c-2.099-2.187-3.961-8.592-4.478-13.215
	c-0.053-0.6-1.292-14.849-1.292-28.672v-13.715c0-13.557,1.186-27.455,1.283-28.571c0.628-4.749,2.569-11.228,4.633-13.472
	c4.076-4.482,8.297-4.969,11.383-5.324c0.297-0.035,0.575-0.067,0.834-0.1c22.684-1.62,56.428-1.925,60.205-1.954l0.062,0
	c1.733,0.012,36.779,0.277,60.053,1.955l0.896,0.106c3.191,0.363,7.563,0.861,11.68,5.252c2.098,2.187,3.96,8.702,4.478,13.437
	c0.013,0.144,1.293,14.599,1.293,28.671v13.715c0,13.481-1.188,27.465-1.285,28.577c-0.543,4.139-2.442,11.085-4.632,13.467
	c-3.926,4.318-7.898,4.738-11.084,5.076c-0.405,0.042-0.782,0.084-1.126,0.125c-23.73,1.712-59.685,1.951-59.992,1.953
	c-0.444-0.006-44.489-0.656-58.327-1.928c-0.708-0.113-1.469-0.202-2.276-0.293C190.86,298.996,186.108,298.45,182.496,294.479z"/>
<linearGradient id="SVGID_8_" gradientUnits="userSpaceOnUse" x1="177.9338" y1="364.8936" x2="218.3013" y2="316.7854">
	<stop  offset="0" style="stop-color:#083047"/>
	<stop  offset="1" style="stop-color:#0E4059"/>
</linearGradient>
<path fill="url(#SVGID_8_)" d="M233.77,333.351h-71.305c-5.365,0-9.73,3.359-9.73,7.489s4.365,7.489,9.73,7.489h71.305
	c5.365,0,9.73-3.359,9.73-7.489S239.135,333.351,233.77,333.351z"/>
<path fill="#083047" d="M140.269,333.351c-4.129,0-7.489,3.359-7.489,7.489s3.36,7.489,7.489,7.489c4.129,0,7.488-3.359,7.488-7.489
	S144.398,333.351,140.269,333.351z"/>
</svg>
